<svg width="34" height="37" viewBox="0 0 34 37" fill="none" xmlns="http://www.w3.org/2000/svg">
<path d="M3.27344 12.32C3.41397 9.61472 4.69636 4.04599 8.70163 1.51635C13.7082 -1.6457 14.8676 10.6863 15.0784 12.2146" stroke="#EAEAEA" stroke-width="1.64631" stroke-linecap="round"/>
<path d="M3.5364 15.1759C2.55265 14.1394 1.24924 12.3933 3.90536 12.4354C6.56149 12.4776 12.3199 12.453 14.8671 12.4354C15.7981 12.3827 17.0068 12.8571 14.3928 15.1759" stroke="#EAEAEA" stroke-width="1.64631" stroke-linecap="round"/>
<path d="M29.6324 1.05396C29.6324 4.46195 27.693 11.3306 19.7246 15.1251" stroke="#EAEAEA" stroke-width="1.64631" stroke-linecap="round"/>
<path d="M17.7227 1.10596C17.7227 3.93424 18.6924 9.54864 25.1008 10.8556" stroke="#EAEAEA" stroke-width="1.64631" stroke-linecap="round"/>
<path d="M19.7947 21.126C18.811 25.5704 18.295 35.9455 22.8483 35.1444C27.4017 34.3434 29.0876 24.9029 29.1228 21.126C28.8417 25.1664 28.8352 34.7228 33.1777 35.1444" stroke="#EAEAEA" stroke-width="1.64631" stroke-linecap="round" stroke-linejoin="round"/>
<path d="M1 35.1959C2.58103 30.1671 6.05928 20.3114 7.32411 21.1187C8.58893 21.926 9.15107 27.1731 9.01053 29.6623C9.36187 26.8368 10.0856 21.1187 12.278 21.1187C14.4703 21.1187 16.0022 30.5035 16.4941 35.1959" stroke="#EAEAEA" stroke-width="1.64631" stroke-linecap="round" stroke-linejoin="round"/>
</svg>
