<svg width="68" height="37" viewBox="0 0 68 37" fill="none" xmlns="http://www.w3.org/2000/svg">
<path d="M0.0461781 13.6242C-0.0110609 12.1027 0.275134 10.5812 0.973451 9.12887C1.78625 7.25005 3.01116 5.72856 4.69399 4.56438C5.79298 3.80363 7.01789 3.21578 8.34584 2.92762C9.85695 2.58183 11.3108 2.5242 12.8792 2.81236C15.9586 3.40021 18.2825 5.15223 19.9654 7.72264C20.8926 9.1865 21.4192 10.7656 21.591 12.5177C21.6482 13.5089 21.591 14.5002 21.5337 15.4454C21.4765 15.9756 21.362 16.4367 21.1903 16.9669C20.5492 19.1339 19.2785 20.9435 17.4697 22.3382C16.2448 23.3295 14.9169 23.975 13.4058 24.3208C11.8947 24.6666 10.3263 24.6666 8.8152 24.436C6.66301 24.0902 4.80847 23.0874 3.24012 21.4507C2.37008 20.5747 1.67177 19.5834 1.08793 18.4653C0.40106 16.9553 0.0461781 15.3186 0.0461781 13.6242ZM4.05291 13.6818C4.05291 13.97 4.05291 14.2697 4.11015 14.5002C4.22463 16.0793 4.86571 17.4856 5.9647 18.6497C7.59028 20.2289 9.50207 20.932 11.7687 20.6899C12.696 20.5747 13.566 20.2865 14.3788 19.7563C16.1761 18.5229 17.4011 16.8977 17.63 14.6731C17.859 12.4485 17.4011 10.4659 15.8899 8.77155C14.9054 7.665 13.6805 6.90426 12.2381 6.6622C10.8415 6.43167 9.39904 6.48931 8.05965 7.13479C6.72025 7.78027 5.73574 8.71391 5.03742 9.93572C4.28187 11.1114 3.99567 12.3332 4.05291 13.6818Z" fill="black"/>
<path d="M63.7304 9.56688C63.032 8.86376 62.2192 8.13759 61.4637 7.66501C59.7236 6.67373 57.8691 6.37404 55.9458 6.78899C53.8509 7.26158 52.3512 8.42575 51.298 10.293C50.8287 11.1114 50.5425 11.9874 50.5425 12.9211C50.5425 13.7971 50.5425 14.7307 50.7714 15.6068C51.1149 16.8286 51.7559 17.8314 52.6832 18.7074C54.7667 20.6323 57.2051 21.1625 59.9411 20.4594C61.6239 20.056 62.7229 18.8803 63.4213 17.2435H58.0751C57.5485 17.2435 57.5485 17.2435 57.5485 16.7133V14.0276C57.5485 13.6242 57.5485 13.6242 57.9607 13.6242H67.4852C67.8974 13.6242 67.8973 13.6242 67.8973 14.0276C67.9546 15.4339 67.7829 16.7709 67.2563 18.0619C66.6724 19.5834 65.8024 20.9205 64.6462 22.0385C63.4899 23.1451 62.1506 23.9058 60.5822 24.2631C59.0139 24.6666 57.3883 24.7357 55.8199 24.436C54.6064 24.2631 53.4388 23.9058 52.397 23.3871C51.0004 22.684 49.7869 21.6927 48.8596 20.4594C47.9324 19.2376 47.2913 17.889 46.8906 16.3675C46.4785 14.7307 46.4213 13.094 46.7761 11.3996C47.3027 8.77155 48.6879 6.6622 50.7256 5.02544C51.9391 4.03416 53.3357 3.38868 54.8468 3.10052C56.7586 2.69709 58.6246 2.75473 60.5364 3.15815C62.8031 3.63074 64.6576 4.79491 66.226 6.43167C66.4549 6.6622 66.4549 6.71983 66.226 7.01952C65.4704 7.72264 64.7263 8.43728 64.0165 9.24413C63.7304 9.56687 63.8448 9.45161 63.7304 9.56688Z" fill="black"/>
<path d="M28.1963 8.77155C28.1963 9.05971 28.2536 9.3594 28.2536 9.70519C28.3108 10.1086 28.3108 10.5812 28.3681 10.9962C28.4253 11.2843 28.3108 11.342 28.0819 11.3996C27.498 11.4572 26.9256 11.5725 26.399 11.6301C25.9297 11.6877 25.529 11.7454 25.0596 11.803C25.0024 11.803 24.9452 11.8606 24.8307 11.9183C26.0442 12.2064 27.2118 12.4485 28.4253 12.679C27.5553 16.1254 26.7425 19.5142 25.9297 22.9606C25.5176 22.8454 25.1741 22.7877 24.8307 22.7301C24.0179 22.5572 23.1479 22.3267 22.3351 22.0846C22.0489 22.027 21.9916 21.9117 22.0489 21.612C22.461 20.0906 22.8044 18.6267 23.1479 17.1167C23.3768 16.1254 23.6172 15.1342 23.8462 14.1314C23.9607 13.5435 24.1324 12.9672 24.2583 12.437C24.3155 12.0335 24.43 11.6186 24.3728 11.2728C24.2583 9.86656 24.0866 8.52949 23.9034 7.12326C23.7317 5.6594 23.6172 4.26469 23.4341 2.80083C23.3768 2.3974 23.4341 2.32825 23.8347 2.32825C24.6475 2.21298 25.4031 2.15535 26.1586 2.04008C26.4448 2.04008 26.628 2.04008 26.857 2.21298C29.1923 4.14943 31.5048 6.02825 33.8859 7.89554C34.1721 8.12607 34.4697 8.36812 34.8704 8.65628C34.9277 8.54102 34.9277 8.42575 35.0421 8.36812C36.7822 6.20114 38.5223 3.98806 40.2623 1.82108C40.6058 1.41765 40.9034 1.0027 41.2468 0.599273C41.3613 0.484008 41.533 0.368744 41.6475 0.311111C42.5176 0.195846 43.3876 0.138214 44.2576 0.0229492C44.4866 0.0229492 44.5438 0.0229492 44.6011 0.253479C44.7155 1.71734 44.83 3.05441 45.0017 4.40301C45.1162 5.75161 45.2879 7.03105 45.4711 8.37965C45.5283 8.90987 45.5283 8.90987 45.0017 8.9675C44.1317 9.08276 43.2617 9.19803 42.4489 9.38245H42.3344C41.3499 9.49772 41.4644 9.49772 41.4071 8.67934C41.3499 8.27591 41.3499 7.86096 41.2926 7.33074C41.1209 7.50363 41.0064 7.6189 40.892 7.73416C40.3654 8.32201 39.9075 8.95597 39.4381 9.60145C39.3236 9.77435 39.1519 9.83198 38.9687 9.83198C37.1714 10.0625 35.3741 10.3622 33.6341 10.6504C32.9357 10.7656 32.2947 10.8233 31.6078 10.9385C31.3216 10.9962 31.0812 10.9385 30.8522 10.7656C30.0394 10.0625 29.2266 9.41703 28.4139 8.78307C28.3108 8.71392 28.2536 8.71391 28.1963 8.77155Z" fill="black"/>
<path d="M42.4832 27.1217C41.8994 27.0064 41.4415 26.8912 40.9721 26.7759C40.331 26.603 39.6899 26.4301 39.0031 26.2457C38.7169 26.1881 38.7169 26.0728 38.7741 25.8307C38.9458 25.07 39.1176 24.3092 39.358 23.5485C39.8273 21.6236 40.3425 19.6871 40.8118 17.7622C40.9836 17.1167 41.098 16.4712 41.2812 15.8373C41.3957 15.4339 41.3957 15.4339 41.8078 15.4915C42.8495 15.6644 43.8341 15.9064 44.8873 16.137C45.3566 16.2522 45.4139 16.2522 45.2307 16.7248C44.9445 17.889 44.6469 19.0647 44.3607 20.2289C43.8913 22.0385 43.4906 23.8482 43.0213 25.6694C42.964 26.0152 42.8495 26.3725 42.7351 26.7183C42.6549 26.9488 42.5405 27.0641 42.4832 27.1217Z" fill="black"/>
<path d="M38.8772 15.0881C37.2516 16.0793 35.626 17.0706 33.9431 18.1311C33.0159 16.5519 32.0314 14.9728 31.0354 13.2784C33.7027 13.8663 36.3128 14.3849 38.8772 14.9728C38.8199 14.9728 38.8199 15.0304 38.8772 15.0881Z" fill="black"/>
<path d="M17.4011 35.3631H16.531V34.8329C16.0617 35.4784 15.432 35.536 15.1916 35.536C14.1499 35.536 13.2226 34.7177 13.2226 33.4267C13.2226 32.1357 14.0926 31.2597 15.1916 31.2597C15.7755 31.2597 16.2334 31.4902 16.4738 31.9628V31.375H17.3438L17.4011 35.3631ZM14.1499 33.3806C14.1499 34.0837 14.6192 34.5448 15.3061 34.5448C16.0044 34.5448 16.4623 34.0145 16.4623 33.3114C16.4623 32.6083 15.993 32.0896 15.3061 32.0896C14.6192 32.0896 14.1499 32.6198 14.1499 33.3806Z" fill="black"/>
<path d="M24.9566 34.7177C24.9566 36.1815 23.9149 36.8846 22.8044 36.8846C21.8772 36.8846 21.0644 36.3544 20.8354 35.4208H21.9344C22.1061 35.951 22.6899 36.0086 22.8044 36.0086C23.4455 36.0086 23.9607 35.4784 23.9607 34.9021V34.7868C23.8462 34.9597 23.4913 35.4323 22.8044 35.4323C21.7054 35.4323 20.7782 34.4986 20.7782 33.3229C20.7782 32.1011 21.7054 31.2251 22.8044 31.2251C23.0906 31.2251 23.6745 31.2828 24.0179 31.9282V31.398H24.8879L24.9566 34.7177ZM21.7627 33.2653C21.7627 33.9108 22.1633 34.4871 22.9189 34.4871C23.6172 34.4871 24.0751 33.9569 24.0751 33.3229C24.0751 32.6198 23.6058 32.1011 22.9189 32.1011C22.1633 32.0896 21.7627 32.6775 21.7627 33.2653Z" fill="black"/>
<path d="M29.4213 33.7264C29.5357 34.199 29.9479 34.5448 30.463 34.5448C30.7492 34.5448 31.1041 34.4295 31.333 34.1413H32.432C31.9054 35.4323 30.692 35.4323 30.463 35.4323C29.0091 35.4323 28.3681 34.2681 28.3681 33.3345C28.3681 32.4008 29.0664 31.1675 30.5203 31.1675C31.7337 31.1675 32.5465 32.1011 32.5465 33.3345V33.7379H29.4213V33.7264ZM31.562 32.908C31.4475 32.3778 30.9782 32.0896 30.5203 32.0896C29.9937 32.0896 29.593 32.4354 29.4213 32.908H31.562Z" fill="black"/>
<path d="M35.9809 31.3289H36.8509V31.6747C36.9654 31.5018 37.3203 31.1444 37.9499 31.1444C38.8772 31.1444 39.5182 31.7899 39.5182 32.9541V35.294H38.591V33.1846C38.591 32.3086 38.1903 32.0781 37.7782 32.0781C37.0226 32.0781 36.9654 32.8388 36.9654 33.1846V35.3516H36.0381L35.9809 31.3289Z" fill="black"/>
<path d="M47.1883 34.0261C46.9021 34.8444 46.2038 35.4899 45.2192 35.4899C43.7081 35.4899 43.0098 34.3258 43.0098 33.3229C43.0098 32.3893 43.7081 31.2251 45.162 31.2251C46.1465 31.2251 46.9021 31.813 47.1883 32.689H46.0893C45.9176 32.3432 45.5627 32.1588 45.162 32.1588C44.4064 32.1588 43.9485 32.7466 43.9485 33.3806C43.9485 34.0837 44.4179 34.6024 45.162 34.6024C45.3337 34.6024 45.8603 34.5448 46.0893 34.0722L47.1883 34.0261Z" fill="black"/>
<path d="M54.263 31.3289L51.9391 36.7117H50.8974L51.6529 35.0173L50.199 31.398H51.298L52.2253 33.9684L53.1526 31.398C53.2213 31.3289 54.263 31.3289 54.263 31.3289Z" fill="black"/>
</svg>
