<svg width="53" height="34" viewBox="0 0 53 34" fill="none" xmlns="http://www.w3.org/2000/svg">
<path d="M7.8299 15.3425C5.85569 15.3425 4.25751 14.7583 3.03537 13.5898C1.81324 12.408 1.20217 10.9038 1.20217 9.07734C1.20217 7.4523 1.59836 5.98843 2.39073 4.68571C3.19653 3.36957 4.28437 2.3556 5.65423 1.6438C7.0241 0.918579 8.53498 0.555968 10.1869 0.555968C12.1477 0.555968 13.7324 1.14689 14.9411 2.32874C16.1633 3.49715 16.7743 4.98789 16.7743 6.80095C16.7743 8.43941 16.3714 9.91672 15.5656 11.2329C14.7732 12.5356 13.6988 13.5496 12.3424 14.2748C10.986 14.9866 9.4818 15.3425 7.8299 15.3425ZM8.33353 11.8574C9.63625 11.8574 10.7174 11.3873 11.5769 10.4472C12.4498 9.5071 12.8863 8.41255 12.8863 7.16356C12.8863 6.53235 12.752 5.98171 12.4834 5.51166C12.2148 5.04161 11.8321 4.679 11.3352 4.42382C10.8517 4.16865 10.2876 4.04107 9.64296 4.04107C8.36711 4.04107 7.28599 4.51112 6.3996 5.45122C5.52665 6.39133 5.09017 7.48588 5.09017 8.73488C5.09017 9.67498 5.38563 10.4338 5.97656 11.0113C6.56748 11.5753 7.35314 11.8574 8.33353 11.8574ZM31.9269 0.898433L35.7142 0.898433L35.0292 15H31.3427L31.8665 6.84124L26.387 15.0201H25.3395L23.1638 6.80095L20.3435 15L16.4555 15L21.4112 0.898433L25.0977 0.898433L26.9712 8.55357L31.9269 0.898433ZM45.6795 4.06121C44.82 4.06121 44.0478 4.28952 43.3629 4.74615C42.6779 5.18934 42.1474 5.77355 41.7714 6.49877C41.4088 7.22399 41.2275 8.01637 41.2275 8.87589C41.2275 9.77571 41.4961 10.4942 42.0333 11.0314C42.5705 11.5686 43.3091 11.8372 44.2492 11.8372C46.022 11.8372 47.2441 11.1859 47.9157 9.88315H44.2694L44.773 7.50602L52.4483 7.50602C52.0857 10.004 51.1523 11.9379 49.6481 13.3078C48.144 14.6642 46.2033 15.3425 43.8262 15.3425C41.946 15.3425 40.4082 14.7583 39.213 13.5898C38.0177 12.4214 37.4201 10.9441 37.4201 9.15792C37.4201 7.57317 37.7961 6.12944 38.5482 4.82673C39.3137 3.51058 40.3612 2.46975 41.6908 1.70424C43.0338 0.938724 44.5178 0.555968 46.1429 0.555968C47.9425 0.555968 49.4601 1.1066 50.6957 2.20786C51.9447 3.2957 52.5625 4.5917 52.549 6.09587L48.6409 6.09587C48.4931 5.47808 48.1507 4.98789 47.6135 4.62528C47.0897 4.24923 46.4451 4.06121 45.6795 4.06121ZM5.77133 33.3425C4.25373 33.3425 3.05174 32.9933 2.16536 32.2949C1.2924 31.5831 0.855926 30.6162 0.855926 29.394C0.855926 29.0851 0.889501 28.7628 0.956651 28.4271H4.80436C4.7775 28.5345 4.76407 28.6419 4.76407 28.7494C4.76407 29.1657 4.89837 29.4948 5.16698 29.7365C5.43558 29.9648 5.81162 30.079 6.2951 30.079C6.64428 30.079 6.9666 30.0252 7.26207 29.9178C7.55753 29.7969 7.79927 29.6156 7.98729 29.3739C8.17531 29.1321 8.26932 28.8434 8.26932 28.5076C8.26932 28.3062 8.20889 28.1316 8.08801 27.9839C7.98057 27.8361 7.80598 27.7086 7.56424 27.6011C7.3225 27.4937 7.09419 27.4064 6.87931 27.3392C6.67786 27.2721 6.38911 27.1915 6.01307 27.0975C5.69075 27.0035 5.43558 26.9296 5.24756 26.8759C5.05954 26.8222 4.81108 26.7416 4.50219 26.6342C4.20673 26.5267 3.96499 26.4193 3.77696 26.3118C3.58894 26.2044 3.38078 26.0634 3.15247 25.8888C2.93759 25.7008 2.76299 25.5127 2.62869 25.3247C2.50782 25.1233 2.40038 24.8815 2.30637 24.5995C2.22579 24.304 2.1855 23.9951 2.1855 23.6728C2.1855 22.5581 2.44739 21.618 2.97116 20.8525C3.49493 20.0736 4.20673 19.4961 5.10654 19.12C6.01979 18.744 7.08076 18.556 8.28947 18.556C9.22957 18.556 10.0421 18.697 10.727 18.979C11.412 19.261 11.9357 19.6841 12.2983 20.2482C12.6744 20.7988 12.8624 21.4636 12.8624 22.2425C12.8624 22.5648 12.8355 22.8737 12.7818 23.1692L9.05498 23.1692C9.06841 23.0618 9.07512 22.9677 9.07512 22.8872C9.07512 22.5246 8.95425 22.2425 8.71251 22.0411C8.4842 21.8262 8.15517 21.7187 7.7254 21.7187C7.22849 21.7187 6.82559 21.8329 6.5167 22.0612C6.20781 22.2761 6.05336 22.5917 6.05336 23.008C6.05336 23.1826 6.10037 23.3371 6.19438 23.4714C6.30182 23.6057 6.46969 23.7265 6.698 23.834C6.93974 23.9414 7.15463 24.0287 7.34265 24.0959C7.5441 24.163 7.83284 24.2503 8.20889 24.3578C8.46406 24.4249 8.66551 24.4786 8.81324 24.5189C8.96097 24.5592 9.16242 24.6264 9.41759 24.7204C9.67276 24.8009 9.87421 24.8748 10.0219 24.942C10.1831 25.0091 10.3711 25.1031 10.586 25.224C10.8143 25.3449 10.9956 25.4657 11.1299 25.5866C11.2642 25.7075 11.4052 25.8552 11.553 26.0298C11.7007 26.191 11.8149 26.3655 11.8954 26.5536C11.9894 26.7282 12.0633 26.9363 12.117 27.1781C12.1708 27.4198 12.1976 27.675 12.1976 27.9436C12.1976 29.6492 11.6067 30.9788 10.4248 31.9323C9.243 32.8724 7.69183 33.3425 5.77133 33.3425ZM28.0317 18.8984H31.8189L31.134 33H27.4475L27.9712 24.8412L22.4918 33.0201L21.4442 33.0201L19.2685 24.8009L16.4482 33H12.5602L17.5159 18.8984H21.2025L23.076 26.5536L28.0317 18.8984ZM47.7833 18.8984H51.5706L50.8856 33H47.1991L47.7229 24.8412L42.2434 33.0201H41.1958L39.0202 24.8009L36.1999 33H32.3119L37.2676 18.8984H40.9541L42.8276 26.5536L47.7833 18.8984Z" fill="#EAEAEA"/>
</svg>
