<svg width="76" height="20" viewBox="0 0 76 20" fill="none" xmlns="http://www.w3.org/2000/svg">
<path fill-rule="evenodd" clip-rule="evenodd" d="M10.8506 2.08512C10.4912 2.05795 10.0092 2.15929 9.37277 2.57286C7.15302 4.01526 5.63825 6.36075 4.65362 8.83237C3.84672 10.8578 3.42208 12.9039 3.25102 14.4597C6.33111 14.5026 12.2452 14.4813 15.5556 14.4608C15.3484 12.7556 14.908 9.41538 13.9981 6.55479C13.4297 4.76754 12.7332 3.35814 11.9383 2.62119C11.5636 2.27377 11.2061 2.112 10.8506 2.08512ZM17.6138 14.6252C17.6128 14.6166 17.6118 14.608 17.6107 14.5993C17.4322 13.0963 16.9707 9.21003 15.9204 5.90762C15.3315 4.05612 14.5024 2.19729 13.2922 1.07531C12.6644 0.493266 11.8995 0.0778968 10.9988 0.00979887C10.1019 -0.0580093 9.19398 0.227839 8.29274 0.813471C5.59185 2.56852 3.85858 5.34116 2.78216 8.04318C1.81193 10.4786 1.34362 12.9344 1.19285 14.7238C1.02357 14.7957 0.866351 14.8844 0.72363 14.9927C0.414053 15.2275 0.188886 15.5435 0.0775706 15.9201C-0.0291733 16.2812 -0.0122982 16.6325 0.0476185 16.9285C0.162384 17.4954 0.471188 18.0337 0.76514 18.4601C1.07279 18.9063 1.43518 19.3298 1.75442 19.6758C2.13892 20.0926 2.779 20.1098 3.1841 19.7142C3.58919 19.3186 3.60589 18.66 3.22139 18.2433C2.93635 17.9343 2.64536 17.5905 2.41483 17.2562C2.22443 16.98 2.11307 16.7637 2.05961 16.6145C2.08389 16.6076 2.11194 16.6004 2.14415 16.5934C2.31499 16.5563 2.56728 16.5301 2.92514 16.536C6.2019 16.5895 13.2882 16.5582 16.4151 16.5361L16.4402 16.5359L16.4653 16.5344C16.5239 16.531 16.5786 16.5305 16.6287 16.5322C16.6151 16.5554 16.6001 16.5801 16.5836 16.6064C16.3595 16.9619 15.9253 17.4775 15.1543 18.1812C14.7365 18.5625 14.6983 19.2201 15.0689 19.65C15.4395 20.0799 16.0787 20.1192 16.4965 19.7379C17.3312 18.976 17.9157 18.3176 18.2806 17.7385C18.6292 17.1854 18.8832 16.5354 18.7358 15.8718C18.5763 15.1531 18.0398 14.788 17.6138 14.6252ZM40.4219 7.62432C38.9315 11.3683 37.3872 16.0413 36.4204 19.205C36.2529 19.7531 35.6852 20.0578 35.1524 19.8855C34.6196 19.7131 34.3235 19.129 34.491 18.5808C35.4666 15.3882 37.03 10.6544 38.5503 6.83561C39.3071 4.93453 40.0704 3.21598 40.7595 2.02364C41.0969 1.43986 41.4592 0.905918 41.8395 0.545336C42.0285 0.366065 42.2862 0.167172 42.6082 0.066159C42.9718 -0.0478899 43.3922 -0.0250624 43.7692 0.222515C44.1467 0.470419 44.425 0.835043 44.6332 1.1899C44.8472 1.55471 45.0276 1.97958 45.1818 2.42735C45.369 2.97081 45.5305 3.5859 45.6682 4.23617C45.956 3.30326 46.3122 2.41867 46.7635 1.71288C47.3092 0.859227 48.1367 0.0590957 49.3111 0.0590957C50.0339 0.0590957 50.6049 0.459951 51.0152 0.903971C51.4281 1.35092 51.7788 1.94549 52.0827 2.59379C52.6933 3.89679 53.2198 5.6481 53.6666 7.52448C54.564 11.2934 55.1917 15.7921 55.4965 18.7844C55.5548 19.3559 55.1517 19.8678 54.5962 19.9277C54.0407 19.9876 53.5432 19.5729 53.485 19.0014C53.1856 16.0625 52.5701 11.6647 51.7021 8.01964C51.2662 6.18907 50.7794 4.60413 50.2609 3.49761C50.0001 2.94115 49.7571 2.56265 49.5493 2.33772C49.4055 2.18209 49.324 2.14682 49.3025 2.1401C49.1292 2.14358 48.8387 2.25349 48.4532 2.85643C48.0695 3.45672 47.726 4.35086 47.4297 5.44015C46.8406 7.60607 46.5179 10.228 46.3005 12.0269C46.2332 12.5836 45.7491 12.9852 45.206 12.9347C44.6629 12.8843 44.2565 12.3999 44.2873 11.8398C44.3688 10.3543 44.2459 7.98633 43.9104 5.86927C43.7428 4.8118 43.5281 3.85582 43.2755 3.12251C43.1693 2.81429 43.0625 2.56357 42.9596 2.36941C42.8301 2.54385 42.6754 2.78024 42.4979 3.08722C41.8881 4.1423 41.1704 5.74405 40.4219 7.62432ZM49.2967 2.13871C49.2967 2.13863 49.2978 2.13878 49.3 2.13938C49.2978 2.13909 49.2967 2.13879 49.2967 2.13871ZM58.7657 0.0912562C59.311 0.215441 59.6552 0.770934 59.5345 1.33198C58.9488 4.05432 58.5014 8.62327 58.8778 12.3454C59.0675 14.222 59.4551 15.7531 60.0419 16.7264C60.3274 17.1999 60.6331 17.4962 60.944 17.6606C61.2428 17.8186 61.6175 17.8931 62.1234 17.8016C63.063 17.6315 63.9373 17.0448 64.7492 16.0613C65.5639 15.0746 66.2683 13.7428 66.8578 12.2167C68.0329 9.17435 68.6791 5.55057 68.9045 2.89048C68.9279 2.20904 68.9611 1.58334 68.9982 1.03492C69.0361 0.473831 69.5006 0.0453331 70.0468 0.067475C70.5931 0.089617 71.0233 0.554382 71.0182 1.1168C71.0132 1.67525 70.9821 2.31701 70.924 3.01638C70.8296 5.8341 70.9113 9.56516 71.578 12.6221C71.9132 14.159 72.3802 15.4473 72.9899 16.3562C73.5849 17.2433 74.2689 17.709 75.0864 17.7907C75.6423 17.8462 76.0492 18.3549 75.9952 18.9268C75.9412 19.4988 75.4468 19.9174 74.8909 19.8619C73.325 19.7055 72.1588 18.7809 71.3252 17.5382C70.5063 16.3174 69.9663 14.7366 69.6045 13.0777C69.4849 12.529 69.383 11.9633 69.2966 11.3881C69.1247 11.9301 68.9384 12.4646 68.7373 12.9852C68.1012 14.6321 67.2981 16.1882 66.2907 17.4085C65.2805 18.6321 64.0182 19.5715 62.4738 19.851C61.5813 20.0126 60.7521 19.8988 60.0195 19.5114C59.2992 19.1306 58.746 18.5246 58.3232 17.8233C57.4933 16.4469 57.066 14.5383 56.8661 12.5607C56.463 8.57456 56.9368 3.77766 57.5597 0.88227C57.6804 0.32122 58.2204 -0.0329286 58.7657 0.0912562ZM34.5489 0.0666685C35.1075 0.0666685 35.5602 0.532498 35.5602 1.10713C35.5602 5.73383 33.0201 14.8308 22.8116 19.8323C22.3074 20.0793 21.7039 19.859 21.4638 19.3402C21.2237 18.8214 21.4378 18.2006 21.9421 17.9535C24.1621 16.8659 25.981 15.5719 27.4643 14.1774C24.0028 13.1059 21.8705 10.9441 20.6079 8.5533C19.2159 5.91738 18.9054 3.05736 18.9054 1.17374C18.9054 0.599107 19.3582 0.133278 19.9167 0.133278C20.4752 0.133278 20.928 0.599107 20.928 1.17374C20.928 2.86503 21.2132 5.34074 22.3851 7.55983C23.524 9.71652 25.5235 11.6833 29.091 12.4581C32.5445 8.34615 33.5377 3.77186 33.5377 1.10713C33.5377 0.532498 33.9904 0.0666685 34.5489 0.0666685Z" fill="#EAEAEA"/>
</svg>
