<svg width="77" height="43" viewBox="0 0 77 43" fill="none" xmlns="http://www.w3.org/2000/svg">
<path fill-rule="evenodd" clip-rule="evenodd" d="M47.1919 1.70725L12.3782 1.70725C6.47504 1.70725 1.68958 6.54278 1.68958 12.5077C1.68958 18.4726 6.47503 23.3081 12.3782 23.3081L47.1919 23.3081C53.0951 23.3081 57.8806 18.4726 57.8806 12.5077C57.8806 6.54277 53.0951 1.70725 47.1919 1.70725ZM12.3782 0C5.54191 0 0 5.59989 0 12.5077C0 19.4155 5.5419 25.0154 12.3782 25.0154L47.1919 25.0154C54.0282 25.0154 59.5701 19.4155 59.5701 12.5077C59.5701 5.59989 54.0282 0 47.1919 0L12.3782 0Z" fill="#EAEAEA"/>
<path d="M13.0145 17.7104L14.3892 6.53423H16.5381L15.1634 17.7104H13.0145ZM7.23147 15.3315L7.23147 13.2719L17.6915 13.2719V15.3315L7.23147 15.3315ZM8.92215 17.7104L10.2968 6.53423H12.4457L11.071 17.7104L8.92215 17.7104ZM7.75289 10.9728V8.91316L18.2288 8.91316V10.9728L7.75289 10.9728Z" fill="#EAEAEA"/>
<path d="M19.6108 17.7104L19.6108 6.53423H24.6671C25.6783 6.53423 26.5474 6.69921 27.2742 7.02917C28.0116 7.35914 28.5804 7.83812 28.9807 8.46611C29.381 9.08347 29.5811 9.8179 29.5811 10.6694C29.5811 11.5103 29.381 12.2394 28.9807 12.8568C28.5804 13.4635 28.0116 13.9318 27.2742 14.2618C26.5474 14.5811 25.6783 14.7408 24.6671 14.7408H21.3489L22.7394 13.4156V17.7104H19.6108ZM26.4526 17.7104L23.7032 13.6391H27.0372L29.8023 17.7104H26.4526ZM22.7394 13.7509L21.3489 12.298H24.4775C25.1306 12.298 25.6151 12.1543 25.9311 11.8669C26.2577 11.5795 26.4209 11.1803 26.4209 10.6694C26.4209 10.1479 26.2577 9.7434 25.9311 9.45601C25.6151 9.16862 25.1306 9.02493 24.4775 9.02493H21.3489L22.7394 7.57202L22.7394 13.7509Z" fill="#EAEAEA"/>
<path d="M34.1828 10.861L39.318 10.861V13.224L34.1828 13.224V10.861ZM34.404 15.2676L40.1871 15.2676V17.7104L31.3071 17.7104L31.3071 6.53423L39.9817 6.53423V8.97703L34.404 8.97703V15.2676Z" fill="#EAEAEA"/>
<path d="M47.4376 17.934C46.5633 17.934 45.7522 17.7956 45.0043 17.5188C44.267 17.2315 43.6244 16.827 43.0766 16.3054C42.5394 15.7839 42.1181 15.1718 41.8126 14.4693C41.5071 13.7562 41.3544 12.9739 41.3544 12.1223C41.3544 11.2708 41.5071 10.4938 41.8126 9.79129C42.1181 9.07815 42.5394 8.46079 43.0766 7.93924C43.6244 7.41768 44.267 7.01853 45.0043 6.74179C45.7522 6.4544 46.5633 6.3107 47.4376 6.3107C48.4594 6.3107 49.3706 6.49165 50.1712 6.85355C50.9823 7.21544 51.6564 7.737 52.1936 8.41822L50.2028 10.2383C49.8446 9.81258 49.4496 9.48794 49.0177 9.26441C48.5963 9.04089 48.1223 8.92913 47.5956 8.92913C47.1427 8.92913 46.7266 9.00364 46.3474 9.15265C45.9682 9.30167 45.6416 9.51987 45.3677 9.80726C45.1044 10.084 44.8937 10.4193 44.7357 10.8131C44.5882 11.2069 44.5145 11.6434 44.5145 12.1223C44.5145 12.6013 44.5882 13.0377 44.7357 13.4315C44.8937 13.8254 45.1044 14.166 45.3677 14.4534C45.6416 14.7301 45.9682 14.943 46.3474 15.092C46.7266 15.241 47.1427 15.3155 47.5956 15.3155C48.1223 15.3155 48.5963 15.2038 49.0177 14.9802C49.4496 14.7567 49.8446 14.4321 50.2028 14.0063L52.1936 15.8264C51.6564 16.497 50.9823 17.0186 50.1712 17.3911C49.3706 17.753 48.4594 17.934 47.4376 17.934Z" fill="#EAEAEA"/>
<path d="M5.50924 42.4815L10.3917 31.3053L13.4728 31.3053L18.371 42.4815H15.1161L11.2923 32.854H12.5248L8.70098 42.4815H5.50924ZM8.17956 40.3102L8.9854 37.9791H14.3892L15.1951 40.3102H8.17956Z" fill="#EAEAEA"/>
<path d="M24.6339 42.7051C23.7596 42.7051 22.9485 42.5667 22.2006 42.2899C21.4527 42.0026 20.8049 41.5981 20.2571 41.0765C19.7199 40.555 19.2985 39.9429 18.9931 39.2404C18.6876 38.5273 18.5348 37.745 18.5348 36.8934C18.5348 36.0419 18.6876 35.2649 18.9931 34.5624C19.2985 33.8492 19.7252 33.2319 20.2729 32.7103C20.8207 32.1888 21.4685 31.7896 22.2164 31.5129C22.9748 31.2255 23.8017 31.0818 24.6971 31.0818C25.74 31.0818 26.6722 31.2574 27.4938 31.6087C28.3155 31.9599 28.9949 32.4655 29.5321 33.1255L27.5412 34.9456C27.162 34.5305 26.7512 34.2218 26.3088 34.0196C25.8769 33.8067 25.3923 33.7002 24.8551 33.7002C24.3811 33.7002 23.9492 33.7747 23.5595 33.9238C23.1697 34.0728 22.8379 34.291 22.564 34.5784C22.2901 34.8551 22.0742 35.1904 21.9162 35.5842C21.7687 35.9674 21.695 36.4038 21.695 36.8934C21.695 37.3618 21.7687 37.7929 21.9162 38.1867C22.0742 38.5805 22.2901 38.9211 22.564 39.2085C22.8379 39.4852 23.1644 39.7034 23.5437 39.8631C23.9334 40.0121 24.36 40.0866 24.8235 40.0866C25.287 40.0866 25.74 40.0121 26.1824 39.8631C26.6248 39.7034 27.0725 39.4373 27.5254 39.0648L29.2793 41.2841C28.6473 41.7418 27.9152 42.093 27.083 42.3378C26.2509 42.5827 25.4345 42.7051 24.6339 42.7051ZM26.5142 40.869V36.6539H29.2793V41.2841L26.5142 40.869Z" fill="#EAEAEA"/>
<path d="M34.1385 35.6321H39.2738V37.9951H34.1385V35.6321ZM34.3597 40.0387H40.1428V42.4815H31.2628L31.2628 31.3053L39.9374 31.3053V33.7481H34.3597V40.0387Z" fill="#EAEAEA"/>
<path d="M41.8789 42.4815V31.3053H44.4544L50.5535 38.7455H49.3368V31.3053H52.4022V42.4815H49.8267L43.7276 35.0414H44.9443V42.4815H41.8789Z" fill="#EAEAEA"/>
<path d="M60.1234 42.7051C59.2491 42.7051 58.438 42.5667 57.6901 42.2899C56.9528 42.0026 56.3102 41.5981 55.7624 41.0765C55.2252 40.555 54.8039 39.9429 54.4984 39.2404C54.1929 38.5273 54.0402 37.745 54.0402 36.8934C54.0402 36.0419 54.1929 35.2649 54.4984 34.5624C54.8039 33.8492 55.2252 33.2319 55.7624 32.7103C56.3102 32.1888 56.9528 31.7896 57.6901 31.5129C58.438 31.2255 59.2491 31.0818 60.1234 31.0818C61.1452 31.0818 62.0564 31.2628 62.857 31.6247C63.6681 31.9865 64.3422 32.5081 64.8794 33.1893L62.8886 35.0094C62.5304 34.5837 62.1354 34.259 61.7035 34.0355C61.2822 33.812 60.8081 33.7002 60.2814 33.7002C59.8285 33.7002 59.4124 33.7747 59.0332 33.9238C58.654 34.0728 58.3274 34.291 58.0535 34.5784C57.7902 34.8551 57.5795 35.1904 57.4215 35.5842C57.274 35.978 57.2003 36.4145 57.2003 36.8934C57.2003 37.3724 57.274 37.8088 57.4215 38.2026C57.5795 38.5965 57.7902 38.9371 58.0535 39.2245C58.3274 39.5012 58.654 39.7141 59.0332 39.8631C59.4124 40.0121 59.8285 40.0866 60.2814 40.0866C60.8081 40.0866 61.2822 39.9749 61.7035 39.7514C62.1354 39.5278 62.5304 39.2032 62.8886 38.7774L64.8794 40.5975C64.3422 41.2681 63.6681 41.7897 62.857 42.1622C62.0564 42.5241 61.1452 42.7051 60.1234 42.7051Z" fill="#EAEAEA"/>
<path d="M69.0248 42.4815V37.7556L69.7516 39.6556L64.806 31.3053H68.1084L71.6793 37.3564H69.7674L73.3542 31.3053H76.3879L71.4581 39.6556L72.1533 37.7556V42.4815H69.0248Z" fill="#EAEAEA"/>
</svg>
