<svg width="535" height="208" viewBox="0 0 535 208" fill="none" xmlns="http://www.w3.org/2000/svg">
<path d="M144.666 208L135.754 177.989H66.5402L57.6286 208H0L68.6196 0H133.378L201.997 208H144.666ZM80.2048 132.229H122.089L100.999 61.5086L80.2048 132.229Z" fill="black"/>
<path d="M325.542 208L289.301 140.846H270.29V208H217.117V0H300.292C321.482 0 339.206 6.83429 353.465 20.5029C367.922 33.9733 375.15 51.1086 375.15 71.9086C375.15 84.3886 371.981 95.8781 365.644 106.377C359.307 116.678 350.692 124.899 339.8 131.04L382.576 208H325.542ZM270.29 49.0286V95.68H299.698C306.233 95.8781 311.58 93.7981 315.739 89.44C319.898 85.0819 321.977 79.4362 321.977 72.5029C321.977 65.5695 319.898 59.9238 315.739 55.5657C311.58 51.2076 306.233 49.0286 299.698 49.0286H270.29Z" fill="black"/>
<path d="M454.498 158.08H535V208H401.325V0H533.515V49.6229H454.498V78.4457H526.088V127.474H454.498V158.08Z" fill="black"/>
</svg>
