<svg width="48" height="48" viewBox="0 0 48 48" fill="none" xmlns="http://www.w3.org/2000/svg">
<g clip-path="url(#clip0_412_3049)">
<rect width="47" height="47" fill="black"/>
<rect x="24" width="23" height="47" fill="#EAEAEA"/>
<mask id="mask0_412_3049" style="mask-type:alpha" maskUnits="userSpaceOnUse" x="24" y="0" width="24" height="48">
<path d="M24 0L48 0V48H24V0Z" fill="black"/>
</mask>
<g mask="url(#mask0_412_3049)">
<path d="M24 31.5C25.9891 31.5 27.8968 30.7098 29.3033 29.3033C30.7098 27.8968 31.5 25.9891 31.5 24C31.5 22.0109 30.7098 20.1032 29.3033 18.6967C27.8968 17.2902 25.9891 16.5 24 16.5C22.0109 16.5 20.1032 17.2902 18.6967 18.6967C17.2902 20.1032 16.5 22.0109 16.5 24C16.5 25.9891 17.2902 27.8968 18.6967 29.3033C20.1032 30.7098 22.0109 31.5 24 31.5ZM24 9C24.2486 9 24.4871 9.09877 24.6629 9.27459C24.8387 9.4504 24.9375 9.68886 24.9375 9.9375V13.6875C24.9375 13.9361 24.8387 14.1746 24.6629 14.3504C24.4871 14.5262 24.2486 14.625 24 14.625C23.7514 14.625 23.5129 14.5262 23.3371 14.3504C23.1613 14.1746 23.0625 13.9361 23.0625 13.6875V9.9375C23.0625 9.68886 23.1613 9.4504 23.3371 9.27459C23.5129 9.09877 23.7514 9 24 9ZM24 33.375C24.2486 33.375 24.4871 33.4738 24.6629 33.6496C24.8387 33.8254 24.9375 34.0639 24.9375 34.3125V38.0625C24.9375 38.3111 24.8387 38.5496 24.6629 38.7254C24.4871 38.9012 24.2486 39 24 39C23.7514 39 23.5129 38.9012 23.3371 38.7254C23.1613 38.5496 23.0625 38.3111 23.0625 38.0625V34.3125C23.0625 34.0639 23.1613 33.8254 23.3371 33.6496C23.5129 33.4738 23.7514 33.375 24 33.375ZM39 24C39 24.2486 38.9012 24.4871 38.7254 24.6629C38.5496 24.8387 38.3111 24.9375 38.0625 24.9375H34.3125C34.0639 24.9375 33.8254 24.8387 33.6496 24.6629C33.4738 24.4871 33.375 24.2486 33.375 24C33.375 23.7514 33.4738 23.5129 33.6496 23.3371C33.8254 23.1613 34.0639 23.0625 34.3125 23.0625H38.0625C38.3111 23.0625 38.5496 23.1613 38.7254 23.3371C38.9012 23.5129 39 23.7514 39 24ZM14.625 24C14.625 24.2486 14.5262 24.4871 14.3504 24.6629C14.1746 24.8387 13.9361 24.9375 13.6875 24.9375H9.9375C9.68886 24.9375 9.4504 24.8387 9.27459 24.6629C9.09877 24.4871 9 24.2486 9 24C9 23.7514 9.09877 23.5129 9.27459 23.3371C9.4504 23.1613 9.68886 23.0625 9.9375 23.0625H13.6875C13.9361 23.0625 14.1746 23.1613 14.3504 23.3371C14.5262 23.5129 14.625 23.7514 14.625 24ZM34.6069 13.3931C34.7826 13.5689 34.8814 13.8073 34.8814 14.0559C34.8814 14.3045 34.7826 14.5429 34.6069 14.7188L31.9556 17.3719C31.8685 17.4589 31.765 17.5279 31.6512 17.575C31.5373 17.6221 31.4153 17.6462 31.2922 17.6461C31.0434 17.646 30.8048 17.547 30.6291 17.3709C30.542 17.2838 30.473 17.1803 30.4259 17.0665C30.3789 16.9526 30.3547 16.8306 30.3548 16.7075C30.355 16.4587 30.454 16.2202 30.63 16.0444L33.2812 13.3931C33.4571 13.2174 33.6955 13.1186 33.9441 13.1186C34.1927 13.1186 34.4311 13.2174 34.6069 13.3931ZM17.37 30.63C17.5458 30.8058 17.6445 31.0442 17.6445 31.2928C17.6445 31.5414 17.5458 31.7798 17.37 31.9556L14.7188 34.6069C14.5419 34.7776 14.3051 34.8721 14.0593 34.87C13.8135 34.8679 13.5784 34.7693 13.4045 34.5955C13.2307 34.4216 13.1321 34.1865 13.13 33.9407C13.1279 33.6949 13.2224 33.4581 13.3931 33.2812L16.0444 30.63C16.2202 30.4542 16.4586 30.3555 16.7072 30.3555C16.9558 30.3555 17.1942 30.4542 17.37 30.63ZM34.6069 34.6069C34.4311 34.7826 34.1927 34.8814 33.9441 34.8814C33.6955 34.8814 33.4571 34.7826 33.2812 34.6069L30.63 31.9556C30.4592 31.7788 30.3647 31.542 30.3669 31.2962C30.369 31.0504 30.4676 30.8152 30.6414 30.6414C30.8152 30.4676 31.0504 30.369 31.2962 30.3669C31.542 30.3647 31.7788 30.4592 31.9556 30.63L34.6069 33.2812C34.7826 33.4571 34.8814 33.6955 34.8814 33.9441C34.8814 34.1927 34.7826 34.4311 34.6069 34.6069ZM17.37 17.3719C17.1942 17.5476 16.9558 17.6464 16.7072 17.6464C16.4586 17.6464 16.2202 17.5476 16.0444 17.3719L13.3931 14.7188C13.3036 14.6323 13.2322 14.5288 13.183 14.4144C13.1339 14.3001 13.108 14.177 13.107 14.0526C13.1059 13.9281 13.1296 13.8046 13.1767 13.6894C13.2239 13.5742 13.2935 13.4695 13.3815 13.3815C13.4695 13.2935 13.5742 13.2239 13.6894 13.1767C13.8046 13.1296 13.9281 13.1059 14.0526 13.107C14.177 13.108 14.3001 13.1339 14.4144 13.183C14.5288 13.2322 14.6323 13.3036 14.7188 13.3931L17.37 16.0444C17.4573 16.1315 17.5266 16.2349 17.5738 16.3488C17.6211 16.4627 17.6454 16.5848 17.6454 16.7081C17.6454 16.8314 17.6211 16.9535 17.5738 17.0674C17.5266 17.1813 17.4573 17.2848 17.37 17.3719Z" fill="black"/>
</g>
<mask id="mask1_412_3049" style="mask-type:alpha" maskUnits="userSpaceOnUse" x="0" y="0" width="24" height="48">
<path d="M24 0L0 0V48H24V0Z" fill="white"/>
</mask>
<g mask="url(#mask1_412_3049)">
<path d="M24 31.5C25.9891 31.5 27.8968 30.7098 29.3033 29.3033C30.7098 27.8968 31.5 25.9891 31.5 24C31.5 22.0109 30.7098 20.1032 29.3033 18.6967C27.8968 17.2902 25.9891 16.5 24 16.5C22.0109 16.5 20.1032 17.2902 18.6967 18.6967C17.2902 20.1032 16.5 22.0109 16.5 24C16.5 25.9891 17.2902 27.8968 18.6967 29.3033C20.1032 30.7098 22.0109 31.5 24 31.5ZM24 9C24.2486 9 24.4871 9.09877 24.6629 9.27459C24.8387 9.4504 24.9375 9.68886 24.9375 9.9375V13.6875C24.9375 13.9361 24.8387 14.1746 24.6629 14.3504C24.4871 14.5262 24.2486 14.625 24 14.625C23.7514 14.625 23.5129 14.5262 23.3371 14.3504C23.1613 14.1746 23.0625 13.9361 23.0625 13.6875V9.9375C23.0625 9.68886 23.1613 9.4504 23.3371 9.27459C23.5129 9.09877 23.7514 9 24 9ZM24 33.375C24.2486 33.375 24.4871 33.4738 24.6629 33.6496C24.8387 33.8254 24.9375 34.0639 24.9375 34.3125V38.0625C24.9375 38.3111 24.8387 38.5496 24.6629 38.7254C24.4871 38.9012 24.2486 39 24 39C23.7514 39 23.5129 38.9012 23.3371 38.7254C23.1613 38.5496 23.0625 38.3111 23.0625 38.0625V34.3125C23.0625 34.0639 23.1613 33.8254 23.3371 33.6496C23.5129 33.4738 23.7514 33.375 24 33.375ZM39 24C39 24.2486 38.9012 24.4871 38.7254 24.6629C38.5496 24.8387 38.3111 24.9375 38.0625 24.9375H34.3125C34.0639 24.9375 33.8254 24.8387 33.6496 24.6629C33.4738 24.4871 33.375 24.2486 33.375 24C33.375 23.7514 33.4738 23.5129 33.6496 23.3371C33.8254 23.1613 34.0639 23.0625 34.3125 23.0625H38.0625C38.3111 23.0625 38.5496 23.1613 38.7254 23.3371C38.9012 23.5129 39 23.7514 39 24ZM14.625 24C14.625 24.2486 14.5262 24.4871 14.3504 24.6629C14.1746 24.8387 13.9361 24.9375 13.6875 24.9375H9.9375C9.68886 24.9375 9.4504 24.8387 9.27459 24.6629C9.09877 24.4871 9 24.2486 9 24C9 23.7514 9.09877 23.5129 9.27459 23.3371C9.4504 23.1613 9.68886 23.0625 9.9375 23.0625H13.6875C13.9361 23.0625 14.1746 23.1613 14.3504 23.3371C14.5262 23.5129 14.625 23.7514 14.625 24ZM34.6069 13.3931C34.7826 13.5689 34.8814 13.8073 34.8814 14.0559C34.8814 14.3045 34.7826 14.5429 34.6069 14.7188L31.9556 17.3719C31.8685 17.4589 31.765 17.5279 31.6512 17.575C31.5373 17.6221 31.4153 17.6462 31.2922 17.6461C31.0434 17.646 30.8048 17.547 30.6291 17.3709C30.542 17.2838 30.473 17.1803 30.4259 17.0665C30.3789 16.9526 30.3547 16.8306 30.3548 16.7075C30.355 16.4587 30.454 16.2202 30.63 16.0444L33.2812 13.3931C33.4571 13.2174 33.6955 13.1186 33.9441 13.1186C34.1927 13.1186 34.4311 13.2174 34.6069 13.3931ZM17.37 30.63C17.5458 30.8058 17.6445 31.0442 17.6445 31.2928C17.6445 31.5414 17.5458 31.7798 17.37 31.9556L14.7188 34.6069C14.5419 34.7776 14.3051 34.8721 14.0593 34.87C13.8135 34.8679 13.5784 34.7693 13.4045 34.5955C13.2307 34.4216 13.1321 34.1865 13.13 33.9407C13.1279 33.6949 13.2224 33.4581 13.3931 33.2812L16.0444 30.63C16.2202 30.4542 16.4586 30.3555 16.7072 30.3555C16.9558 30.3555 17.1942 30.4542 17.37 30.63ZM34.6069 34.6069C34.4311 34.7826 34.1927 34.8814 33.9441 34.8814C33.6955 34.8814 33.4571 34.7826 33.2812 34.6069L30.63 31.9556C30.4592 31.7788 30.3647 31.542 30.3669 31.2962C30.369 31.0504 30.4676 30.8152 30.6414 30.6414C30.8152 30.4676 31.0504 30.369 31.2962 30.3669C31.542 30.3647 31.7788 30.4592 31.9556 30.63L34.6069 33.2812C34.7826 33.4571 34.8814 33.6955 34.8814 33.9441C34.8814 34.1927 34.7826 34.4311 34.6069 34.6069ZM17.37 17.3719C17.1942 17.5476 16.9558 17.6464 16.7072 17.6464C16.4586 17.6464 16.2202 17.5476 16.0444 17.3719L13.3931 14.7188C13.3036 14.6323 13.2322 14.5288 13.183 14.4144C13.1339 14.3001 13.108 14.177 13.107 14.0526C13.1059 13.9281 13.1296 13.8046 13.1767 13.6894C13.2239 13.5742 13.2935 13.4695 13.3815 13.3815C13.4695 13.2935 13.5742 13.2239 13.6894 13.1767C13.8046 13.1296 13.9281 13.1059 14.0526 13.107C14.177 13.108 14.3001 13.1339 14.4144 13.183C14.5288 13.2322 14.6323 13.3036 14.7188 13.3931L17.37 16.0444C17.4573 16.1315 17.5266 16.2349 17.5738 16.3488C17.6211 16.4627 17.6454 16.5848 17.6454 16.7081C17.6454 16.8314 17.6211 16.9535 17.5738 17.0674C17.5266 17.1813 17.4573 17.2848 17.37 17.3719Z" fill="#EAEAEA"/>
</g>
</g>
<rect x="1" y="1" width="46" height="46" rx="23" stroke="#EAEAEA" stroke-width="2"/>
<defs>
<clipPath id="clip0_412_3049">
<rect width="48" height="48" rx="24" fill="white"/>
</clipPath>
</defs>
</svg>
