<svg width="34" height="37" viewBox="0 0 34 37" fill="none" xmlns="http://www.w3.org/2000/svg">
<path d="M29.7743 28.3126L6.81011 11.7292L2.31938 13.5302L14.2009 22.1103L11.8817 25.3219L15.3762 27.8454L17.6954 24.6339L29.2774 32.9977L29.7743 28.3126Z" fill="black"/>
<path fill-rule="evenodd" clip-rule="evenodd" d="M9.41925 10.4625L32.2776 0.0492262C32.6575 -0.123847 33.0811 0.183323 33.0346 0.598214L30.2464 25.5048C30.2006 25.9138 29.731 26.1217 29.3974 25.8808L26.3181 23.6572C26.1639 23.5457 26.08 23.361 26.0976 23.1715L26.8685 14.8892C26.8862 14.6997 26.8023 14.515 26.648 14.4036L21.0905 10.3903C20.9325 10.2762 20.7251 10.2566 20.5484 10.339L13.1371 13.7985C12.9605 13.8809 12.7531 13.8613 12.5951 13.7472L9.32739 11.3874C8.99301 11.146 9.04391 10.6334 9.41925 10.4625ZM24.2329 8.84331L26.9417 10.8786C27.266 11.1223 27.733 10.9326 27.7957 10.5318L28.3614 6.91214C28.4283 6.48369 27.9865 6.15637 27.5961 6.34526L24.3217 7.92967C23.9594 8.10497 23.9111 8.60156 24.2329 8.84331Z" fill="black"/>
</svg>
